<mxfile host="app.diagrams.net" modified="2023-10-16T20:17:44.905Z" agent="Mozilla/5.0 (Windows NT 10.0; Win64; x64) AppleWebKit/537.36 (KHTML, like Gecko) Chrome/117.0.0.0 Safari/537.36 Edg/117.0.2045.60" etag="A0kWttTHNzxVy-TW0irm" version="21.8.1" type="github">
  <diagram name="Page-1" id="GyKxe4Z96MdNetpnvUcC">
    <mxGraphModel dx="1012" dy="566" grid="1" gridSize="10" guides="1" tooltips="1" connect="1" arrows="1" fold="1" page="1" pageScale="1" pageWidth="850" pageHeight="1100" math="0" shadow="0">
      <root>
        <mxCell id="0" />
        <mxCell id="1" parent="0" />
        <mxCell id="O3Qx9bUmkXEiIXLxbMBX-2" value="&lt;h1&gt;UI COMPONENTS ( NEXT JS / REACT JS )&lt;/h1&gt;&lt;p&gt;&lt;/p&gt;&lt;ul&gt;&lt;li&gt;Home page with minting model link to opensea and web metadata&lt;/li&gt;&lt;li&gt;Horse detail pages with download option.&lt;/li&gt;&lt;li&gt;profile with owned NFTs.&lt;/li&gt;&lt;/ul&gt;&lt;p&gt;&lt;/p&gt;" style="text;html=1;strokeColor=none;fillColor=none;spacing=5;spacingTop=-20;whiteSpace=wrap;overflow=hidden;rounded=0;" vertex="1" parent="1">
          <mxGeometry x="50" y="30" width="490" height="120" as="geometry" />
        </mxCell>
        <mxCell id="O3Qx9bUmkXEiIXLxbMBX-7" value="" style="edgeStyle=orthogonalEdgeStyle;rounded=0;orthogonalLoop=1;jettySize=auto;html=1;" edge="1" parent="1" source="O3Qx9bUmkXEiIXLxbMBX-3" target="O3Qx9bUmkXEiIXLxbMBX-6">
          <mxGeometry relative="1" as="geometry" />
        </mxCell>
        <mxCell id="O3Qx9bUmkXEiIXLxbMBX-13" value="" style="edgeStyle=orthogonalEdgeStyle;rounded=0;orthogonalLoop=1;jettySize=auto;html=1;" edge="1" parent="1" source="O3Qx9bUmkXEiIXLxbMBX-3" target="O3Qx9bUmkXEiIXLxbMBX-12">
          <mxGeometry relative="1" as="geometry" />
        </mxCell>
        <mxCell id="O3Qx9bUmkXEiIXLxbMBX-3" value="user onboarding" style="rounded=1;whiteSpace=wrap;html=1;" vertex="1" parent="1">
          <mxGeometry x="50" y="200" width="120" height="60" as="geometry" />
        </mxCell>
        <mxCell id="O3Qx9bUmkXEiIXLxbMBX-4" value="user land on the home web page" style="text;html=1;strokeColor=none;fillColor=none;align=center;verticalAlign=middle;whiteSpace=wrap;rounded=0;" vertex="1" parent="1">
          <mxGeometry x="140" y="240" width="275" height="30" as="geometry" />
        </mxCell>
        <mxCell id="O3Qx9bUmkXEiIXLxbMBX-9" value="" style="edgeStyle=orthogonalEdgeStyle;rounded=0;orthogonalLoop=1;jettySize=auto;html=1;" edge="1" parent="1" source="O3Qx9bUmkXEiIXLxbMBX-6" target="O3Qx9bUmkXEiIXLxbMBX-8">
          <mxGeometry relative="1" as="geometry" />
        </mxCell>
        <mxCell id="O3Qx9bUmkXEiIXLxbMBX-6" value="show user home information about horse and genetic data" style="rounded=1;whiteSpace=wrap;html=1;" vertex="1" parent="1">
          <mxGeometry x="390" y="200" width="120" height="60" as="geometry" />
        </mxCell>
        <mxCell id="O3Qx9bUmkXEiIXLxbMBX-11" value="" style="edgeStyle=orthogonalEdgeStyle;rounded=0;orthogonalLoop=1;jettySize=auto;html=1;entryX=0.5;entryY=0;entryDx=0;entryDy=0;" edge="1" parent="1" source="O3Qx9bUmkXEiIXLxbMBX-8" target="O3Qx9bUmkXEiIXLxbMBX-15">
          <mxGeometry relative="1" as="geometry" />
        </mxCell>
        <mxCell id="O3Qx9bUmkXEiIXLxbMBX-8" value="section for minting NFTs" style="rounded=1;whiteSpace=wrap;html=1;" vertex="1" parent="1">
          <mxGeometry x="590" y="200" width="120" height="60" as="geometry" />
        </mxCell>
        <mxCell id="O3Qx9bUmkXEiIXLxbMBX-10" value="redirect to download data page" style="rounded=1;whiteSpace=wrap;html=1;" vertex="1" parent="1">
          <mxGeometry x="590" y="410" width="120" height="60" as="geometry" />
        </mxCell>
        <mxCell id="O3Qx9bUmkXEiIXLxbMBX-18" value="" style="edgeStyle=orthogonalEdgeStyle;rounded=0;orthogonalLoop=1;jettySize=auto;html=1;" edge="1" parent="1" source="O3Qx9bUmkXEiIXLxbMBX-12" target="O3Qx9bUmkXEiIXLxbMBX-17">
          <mxGeometry relative="1" as="geometry" />
        </mxCell>
        <mxCell id="O3Qx9bUmkXEiIXLxbMBX-12" value="profle page shows card of owned NFTs" style="rounded=1;whiteSpace=wrap;html=1;" vertex="1" parent="1">
          <mxGeometry x="50" y="410" width="120" height="60" as="geometry" />
        </mxCell>
        <mxCell id="O3Qx9bUmkXEiIXLxbMBX-14" value="click on the profile tab after wallet connect" style="text;html=1;strokeColor=none;fillColor=none;align=center;verticalAlign=middle;whiteSpace=wrap;rounded=0;" vertex="1" parent="1">
          <mxGeometry x="100" y="330" width="275" height="30" as="geometry" />
        </mxCell>
        <mxCell id="O3Qx9bUmkXEiIXLxbMBX-16" value="" style="edgeStyle=orthogonalEdgeStyle;rounded=0;orthogonalLoop=1;jettySize=auto;html=1;" edge="1" parent="1" source="O3Qx9bUmkXEiIXLxbMBX-15" target="O3Qx9bUmkXEiIXLxbMBX-10">
          <mxGeometry relative="1" as="geometry" />
        </mxCell>
        <mxCell id="O3Qx9bUmkXEiIXLxbMBX-15" value="wallet connect" style="rounded=1;whiteSpace=wrap;html=1;" vertex="1" parent="1">
          <mxGeometry x="590" y="315" width="120" height="60" as="geometry" />
        </mxCell>
        <mxCell id="O3Qx9bUmkXEiIXLxbMBX-19" value="" style="edgeStyle=orthogonalEdgeStyle;rounded=0;orthogonalLoop=1;jettySize=auto;html=1;" edge="1" parent="1" source="O3Qx9bUmkXEiIXLxbMBX-17" target="O3Qx9bUmkXEiIXLxbMBX-10">
          <mxGeometry relative="1" as="geometry" />
        </mxCell>
        <mxCell id="O3Qx9bUmkXEiIXLxbMBX-17" value="click on download button on card" style="ellipse;whiteSpace=wrap;html=1;rounded=1;" vertex="1" parent="1">
          <mxGeometry x="395" y="390" width="110" height="100" as="geometry" />
        </mxCell>
        <mxCell id="O3Qx9bUmkXEiIXLxbMBX-20" value="when mint is complete" style="text;html=1;strokeColor=none;fillColor=none;align=center;verticalAlign=middle;whiteSpace=wrap;rounded=0;" vertex="1" parent="1">
          <mxGeometry x="450" y="375" width="275" height="30" as="geometry" />
        </mxCell>
        <mxCell id="O3Qx9bUmkXEiIXLxbMBX-21" value="&lt;h1&gt;SERVER COMPONENTS ( NODE JS &amp;amp; S3 )&lt;/h1&gt;&lt;p&gt;S3 bucket file upload and encryption on accessing data by taking user signature from the frontend and pull public address from signature coming from the frontend and check on that public address against the nft contract to if this address owns the particular nfts or not. if yes allow access to the particular file to download.&lt;/p&gt;" style="text;html=1;strokeColor=none;fillColor=none;spacing=5;spacingTop=-20;whiteSpace=wrap;overflow=hidden;rounded=0;" vertex="1" parent="1">
          <mxGeometry x="40" y="610" width="490" height="120" as="geometry" />
        </mxCell>
      </root>
    </mxGraphModel>
  </diagram>
</mxfile>
